<svg id="Layer_1" data-name="Layer 1" xmlns="http://www.w3.org/2000/svg" viewBox="0 0 5.0.500"><defs><style>.cls-1{fill:none;stroke:#000;stroke-linecap:round;stroke-miterlimit:10;stroke-width:6px;}</style></defs><title>luna</title><path class="cls-1" d="M98.59,100.32c-4,22-27.87,13-27-5,3-62,128,16,141-39,5.47-23.13-31.93-31.15-46.46-11.07-5.95,8.2-49.9,114.67-72.54,147.07-7.5,10.74-12.63,19.81-22,20-19,.4-21-28,7-28,14,0,17.54,6.93,32,15,52,29,240,8.6,247,8,106.54-9.07,134.54,2.93,135,32,.2,13-10,27-26,27"/><path class="cls-1" d="M219.86,125.81c-7.82,6.88-15.27,17.72-15.27,28.14,0,22,32,25,44-2"/><path class="cls-1" d="M263.86,126.81c-7.82,6.88-15.27,17.72-15.27,28.14a14.45,14.45,0,0,0,4.78,11.29A18,18,0,0,0,266,171.32h21.63"/><line class="cls-1" x1="287.59" y1="171.32" x2="312.59" y2="123.32"/><path class="cls-1" d="M436.59,134.32c-1-17-46-13-47,20.63-.24,8.06,3,16.37,11.41,16.37,4.59,0,25.59,0,28.59-12"/><path class="cls-1" d="M444.86,126.81c-7.82,6.88-15.27,17.72-15.27,28.14,0,7.13,3.41,10.48,8.56,14.5a8.82,8.82,0,0,0,5.43,1.87h40"/><path class="cls-1" d="M299.59,148.32l1.5-2.63a25.1,25.1,0,0,1,6.77-7.66c35-26,38.34-4.6,36.47-.18-2.74,6.47-8.74,16.65-8.74,22.47,0,5.55,4.88,8,9,9.41a29.43,29.43,0,0,0,9.63,1.59h50.41"/></svg>
